<?xml version="1.0" encoding="iso-8859-1"?>
<!-- Uploaded to: SVG Repo, www.svgrepo.com, Generator: SVG Repo Mixer Tools -->
<svg fill="#000000" height="800px" width="800px" version="1.1" id="Layer_1" xmlns="http://www.w3.org/2000/svg" xmlns:xlink="http://www.w3.org/1999/xlink" 
	 viewBox="0 0 512 512" xml:space="preserve">
<g>
	<g>
		<path d="M512,98.502c0-50.004-40.682-90.685-90.685-90.685c-26.749,0-51.475,11.42-68.732,31.527
			C322.503,26.277,289.782,19.398,256,19.398s-66.502,6.878-96.581,19.947C142.161,19.238,117.435,7.818,90.685,7.818
			C40.682,7.818,0,48.499,0,98.502c0,26.852,11.984,52.292,32.379,69.447c-12.307,29.322-18.772,61.083-18.772,93.842
			c0,64.746,25.213,125.615,70.995,171.398c45.781,45.782,106.653,70.994,171.398,70.994s125.615-25.213,171.398-70.995
			c45.782-45.781,70.995-106.652,70.995-171.398c0-32.759-6.465-64.521-18.773-93.844C500.008,150.795,512,125.328,512,98.502z
			 M421.315,28.217c38.756,0,70.287,31.531,70.287,70.287c0,18.967-7.736,37.062-21.093,50.187
			c-11.215-21.208-25.664-40.85-43.111-58.297c-16.728-16.728-35.477-30.695-55.687-41.706
			C384.811,35.575,402.413,28.217,421.315,28.217z M20.398,98.502c0-38.756,31.531-70.287,70.287-70.287
			c18.902,0,36.504,7.359,49.605,20.472c-20.21,11.009-38.959,24.978-55.688,41.706c-17.446,17.446-31.895,37.088-43.11,58.296
			C28.131,135.565,20.398,117.489,20.398,98.502z M256,483.784c-122.409,0-221.994-99.586-221.994-221.994
			S133.591,39.797,256,39.797s221.994,99.586,221.994,221.994S378.409,483.784,256,483.784z"/>
	</g>
</g>
<g>
	<g>
		<path d="M256,240.591c-63.415,0-115.005,51.591-115.005,115.004S192.585,470.6,256,470.6s115.005-51.591,115.005-115.005
			S319.415,240.591,256,240.591z M256,450.201c-52.166,0-94.607-42.44-94.607-94.607c0-52.166,42.44-94.606,94.607-94.606
			c52.167,0,94.607,42.44,94.607,94.606C350.607,407.761,308.166,450.201,256,450.201z"/>
	</g>
</g>
<g>
	<g>
		<path d="M165.67,108.57c-35.317,0-64.05,28.732-64.05,64.05c0,35.317,28.733,64.049,64.05,64.049s64.05-28.732,64.05-64.049
			C229.72,137.303,200.987,108.57,165.67,108.57z M169.145,215.113c-12.256,0-22.227-9.971-22.227-22.227
			c0-12.256,9.971-22.226,22.227-22.226c12.256,0,22.227,9.971,22.227,22.226C191.372,205.141,181.4,215.113,169.145,215.113z
			 M209.004,177.8c-6.106-16.078-21.665-27.54-39.859-27.54c-23.188,0-42.096,18.614-42.602,41.682
			c-2.89-5.829-4.524-12.388-4.524-19.322c0.001-24.07,19.582-43.652,43.653-43.652s43.652,19.581,43.652,43.652
			C209.322,174.374,209.206,176.1,209.004,177.8z"/>
	</g>
</g>
<g>
	<g>
		<path d="M346.329,108.57c-35.317,0-64.05,28.732-64.05,64.05c0,35.317,28.733,64.049,64.05,64.049
			c35.317,0,64.05-28.732,64.05-64.049C410.379,137.302,381.646,108.57,346.329,108.57z M342.855,215.113
			c-12.256,0-22.227-9.971-22.227-22.227c0-12.256,9.971-22.226,22.227-22.226c12.256,0,22.227,9.971,22.227,22.226
			C365.083,205.141,355.112,215.113,342.855,215.113z M385.457,191.942c-0.505-23.069-19.414-41.682-42.602-41.682
			c-18.193,0-33.753,11.462-39.859,27.54c-0.202-1.7-0.318-3.427-0.318-5.181c0-24.07,19.581-43.652,43.652-43.652
			c24.07,0,43.652,19.581,43.652,43.652C389.981,179.554,388.348,186.114,385.457,191.942z"/>
	</g>
</g>
<g>
	<g>
		<path d="M256,290.387c-26.058,0-47.258,21.2-47.258,47.257c0,5.633,4.567,10.199,10.199,10.199h26.86v36.124
			c0,5.633,4.567,10.199,10.199,10.199s10.199-4.566,10.199-10.199v-36.124h26.86c5.632,0,10.199-4.566,10.199-10.199
			C303.258,311.586,282.058,290.387,256,290.387z M231.153,327.445c4.024-9.767,13.646-16.659,24.847-16.659
			s20.824,6.893,24.847,16.659H231.153z"/>
	</g>
</g>
<g>
	<g>
		<path d="M256,408.51c-5.632,0-10.199,4.566-10.199,10.199v4.632c0,5.633,4.567,10.199,10.199,10.199s10.199-4.566,10.199-10.199
			v-4.632C266.199,413.076,261.632,408.51,256,408.51z"/>
	</g>
</g>
</svg>